<svg height="433pt" viewBox="-26 0 433 433" width="433pt" xmlns="http://www.w3.org/2000/svg" xmlns:xlink="http://www.w3.org/1999/xlink"><linearGradient id="a"><stop offset="0" stop-color="#00efd1"/><stop offset="1" stop-color="#00acea"/></linearGradient><linearGradient id="b" gradientUnits="userSpaceOnUse" x1="190" x2="190" xlink:href="#a" y1="-17" y2="449.181"/><linearGradient id="c" gradientUnits="userSpaceOnUse" x1="215" x2="215" xlink:href="#a" y1="-17" y2="449.181"/><linearGradient id="d" gradientUnits="userSpaceOnUse" x1="214.462" x2="214.462" xlink:href="#a" y1="-17" y2="449.181"/><linearGradient id="e" gradientUnits="userSpaceOnUse" x1="217" x2="217" xlink:href="#a" y1="-17" y2="449.181"/><path d="m380 47.140625c0-26.035156-21.105469-47.140625-47.140625-47.140625h-285.71875c-26.035156 0-47.140625 21.105469-47.140625 47.140625v338.71875c0 26.035156 21.105469 47.140625 47.140625 47.140625h285.71875c26.035156 0 47.140625-21.105469 47.140625-47.140625zm-364 338.191406v-338.664062c.03125-8.207031 3.335938-16.0625 9.1875-21.824219 5.847656-5.757812 13.753906-8.941406 21.960938-8.84375h11.851562v400h-11.851562c-8.207032.097656-16.113282-3.085938-21.960938-8.84375-5.851562-5.761719-9.15625-13.617188-9.1875-21.824219zm348 0c-.03125 8.207031-3.335938 16.0625-9.1875 21.824219-5.847656 5.757812-13.753906 8.941406-21.960938 8.84375h-257.851562v-400h257.851562c8.207032-.097656 16.113282 3.085938 21.960938 8.84375 5.851562 5.761719 9.15625 13.617188 9.1875 21.824219zm0 0" fill="url(#b)"/><path d="m323 64c0-4.417969-3.582031-8-8-8h-200c-4.417969 0-8 3.582031-8 8v243c0 4.417969 3.582031 8 8 8h200c4.417969 0 8-3.582031 8-8zm-200 8h183v227h-183zm0 0" fill="url(#c)"/><path d="m314.257812 359h-199.589843c-4.417969 0-8 3.582031-8 8s3.582031 8 8 8h199.589843c4.417969 0 8-3.582031 8-8s-3.582031-8-8-8zm0 0" fill="url(#d)"/><path d="m256.476562 212.746094c19.753907-25.71875 16.160157-62.355469-8.214843-83.742188-24.378907-21.390625-61.167969-20.1875-84.101563 2.742188-22.929687 22.929687-24.128906 59.722656-2.742187 84.097656 21.390625 24.378906 58.023437 27.972656 83.742187 8.214844l28.859375 28.859375c3.125 3.125 8.191407 3.121093 11.316407-.003907s3.121093-8.191406-.003907-11.3125zm-94.152343-37.394532c0-25.097656 20.347656-45.441406 45.445312-45.441406 25.097657.003906 45.441407 20.347656 45.441407 45.445313 0 25.097656-20.34375 45.445312-45.441407 45.445312-25.089843-.03125-45.417969-20.363281-45.445312-45.449219zm0 0" fill="url(#e)"/></svg>